<?xml version="1.0" standalone="no"?>
<!DOCTYPE svg PUBLIC "-//W3C//DTD SVG 20010904//EN"
 "http://www.w3.org/TR/2001/REC-SVG-20010904/DTD/svg10.dtd">
<svg version="1.0" xmlns="http://www.w3.org/2000/svg"
 width="1067.000000pt" height="1067.000000pt" viewBox="0 0 1067.000000 1067.000000"
 preserveAspectRatio="xMidYMid meet">
<metadata>
Created by potrace 1.11, written by Peter Selinger 2001-2013
</metadata>
<g transform="translate(0.000000,1067.000000) scale(0.100000,-0.100000)"
fill="#000000" stroke="none">
<path d="M5060 10663 c-212 -14 -350 -28 -499 -49 -949 -135 -1851 -533 -2605
-1148 l-99 -81 67 -61 c124 -113 300 -195 507 -236 l113 -22 -74 -12 c-467
-72 -775 -371 -851 -826 -7 -43 -16 -78 -20 -78 -3 0 -9 24 -13 54 -18 156
-114 383 -216 509 -89 111 -76 111 -167 0 -604 -741 -1001 -1632 -1142 -2564
-34 -222 -51 -430 -57 -694 -32 -1304 403 -2545 1247 -3556 129 -155 445 -472
604 -608 1212 -1036 2778 -1472 4355 -1216 1319 215 2506 925 3348 2004 113
144 312 444 413 621 818 1434 921 3201 274 4721 -95 224 -261 544 -372 718
l-35 54 -73 -141 c-139 -266 -319 -547 -513 -802 -213 -278 -394 -481 -708
-790 -581 -571 -1123 -1018 -1582 -1304 -199 -123 -282 -166 -405 -208 -87
-30 -100 -32 -242 -32 -146 -1 -153 0 -240 32 -49 18 -96 34 -103 35 -7 1 -22
-25 -35 -63 -57 -166 -185 -319 -367 -439 -192 -127 -491 -255 -690 -295 -248
-50 -421 -19 -522 93 -70 77 -83 128 -82 311 0 136 4 167 28 254 81 296 243
611 406 788 89 97 203 170 333 212 18 6 18 8 -2 39 -42 62 -89 164 -112 237
-20 63 -24 95 -23 195 2 202 52 331 244 638 299 478 736 1008 1315 1596 263
267 445 434 660 606 309 247 647 469 942 618 68 34 123 64 123 67 0 3 -46 33
-103 66 -742 446 -1550 697 -2422 754 -137 9 -495 11 -605 3z m2630 -7954 c0
-45 43 -188 80 -264 110 -227 281 -344 600 -413 38 -8 40 -10 15 -11 -66 -3
-205 -44 -294 -87 -78 -38 -109 -60 -181 -132 -73 -73 -95 -102 -134 -182 -44
-90 -86 -225 -86 -277 0 -12 -4 -23 -10 -23 -5 0 -10 11 -10 23 0 51 -42 187
-86 275 -101 206 -283 339 -535 390 -90 19 -92 20 -54 27 288 49 486 186 595
410 38 78 80 216 80 262 0 13 5 23 10 23 6 0 10 -9 10 -21z"/>
<path d="M9470 10229 c-193 -20 -498 -88 -700 -157 -65 -22 -86 -33 -88 -49
-5 -33 75 -261 133 -378 219 -446 640 -832 1087 -999 53 -20 101 -36 106 -36
13 0 93 243 136 412 140 544 121 1023 -44 1132 -111 74 -357 103 -630 75z"/>
<path d="M7840 8624 c-228 -61 -405 -239 -465 -469 -20 -77 -19 -230 1 -309
45 -176 174 -336 334 -415 204 -99 427 -92 618 21 72 42 178 148 220 220 80
135 110 309 78 458 -50 239 -244 440 -476 494 -81 20 -238 19 -310 0z"/>
<path d="M6795 6911 c-251 -90 -630 -382 -1036 -798 -350 -360 -549 -629 -614
-828 -65 -197 18 -303 203 -260 213 50 564 314 982 741 407 415 657 765 701
979 16 79 6 127 -32 159 -26 22 -40 26 -92 25 -34 0 -84 -8 -112 -18z"/>
</g>
</svg>
